<svg width="22" height="23" viewBox="0 0 22 23" fill="none" xmlns="http://www.w3.org/2000/svg">
<g id="AI Icon" clip-path="url(#clip0_2001_2735)">
<path id="Vector" d="M8 3.5L10.5 9L16 11.5L10.5 14L8 19.5L5.5 14L0 11.5L5.5 9L8 3.5ZM8 8.33L7 10.5L4.83 11.5L7 12.5L8 14.67L9 12.5L11.17 11.5L9 10.5L8 8.33ZM18 8.5L16.74 5.76L14 4.5L16.74 3.25L18 0.5L19.25 3.25L22 4.5L19.25 5.76L18 8.5ZM18 22.5L16.74 19.76L14 18.5L16.74 17.25L18 14.5L19.25 17.25L22 18.5L19.25 19.76L18 22.5Z" fill="#694DDD"/>
</g>
<defs>
<clipPath id="clip0_2001_2735">
<rect width="22" height="22" fill="white" transform="translate(0 0.5)"/>
</clipPath>
</defs>
</svg>
