<svg width="18" height="17" viewBox="0 0 18 17" fill="none" xmlns="http://www.w3.org/2000/svg">
<path id="cc" d="M1.95908 0.789062C0.883171 0.789062 0.0205078 1.81229 0.0205078 3.0629V14.4321C0.0205078 15.6827 0.883171 16.7059 1.95908 16.7059H15.5291C16.5953 16.7059 17.4676 15.6827 17.4676 14.4321V3.0629C17.4676 1.81229 16.5953 0.789062 15.5291 0.789062H1.95908ZM7.77479 7.61057H6.32086V7.04211H4.38229V10.4529H6.32086V9.8844H7.77479V11.0213C7.77479 11.6466 7.33861 12.1582 6.8055 12.1582H3.89765C3.36454 12.1582 2.92836 11.6466 2.92836 11.0213V6.47365C2.92836 5.84835 3.36454 5.33673 3.89765 5.33673H6.8055C7.33861 5.33673 7.77479 5.84835 7.77479 6.47365V7.61057ZM14.5598 7.61057H13.1059V7.04211H11.1673V10.4529H13.1059V9.8844H14.5598V11.0213C14.5598 11.6466 14.1236 12.1582 13.5905 12.1582H10.6826C10.1495 12.1582 9.71336 11.6466 9.71336 11.0213V6.47365C9.71336 5.84835 10.1495 5.33673 10.6826 5.33673H13.5905C14.1236 5.33673 14.5598 5.84835 14.5598 6.47365V7.61057Z" fill="#EBEAE9"/>
</svg>
