<svg width="22" height="23" viewBox="0 0 22 23" fill="none" xmlns="http://www.w3.org/2000/svg">
<g id="Group">
<path id="Vector" d="M11 15.7221C12.1198 15.7221 13.1937 15.2773 13.9856 14.4855C14.7774 13.6937 15.2222 12.6197 15.2222 11.4999C15.2222 10.3801 14.7774 9.30618 13.9856 8.51437C13.1937 7.72255 12.1198 7.27771 11 7.27771V15.7221Z" fill="white"/>
<path id="Vector_2" fill-rule="evenodd" clip-rule="evenodd" d="M10.9999 0.944458C5.17004 0.944458 0.444336 5.67017 0.444336 11.5C0.444336 17.3298 5.17004 22.0555 10.9999 22.0555C16.8297 22.0555 21.5554 17.3298 21.5554 11.5C21.5554 5.67017 16.8297 0.944458 10.9999 0.944458ZM10.9999 3.05556V7.27777C9.88006 7.27777 8.80612 7.72261 8.01431 8.51443C7.22249 9.30625 6.77765 10.3802 6.77765 11.5C6.77765 12.6198 7.22249 13.6937 8.01431 14.4855C8.80612 15.2774 9.88006 15.7222 10.9999 15.7222V19.9444C13.2395 19.9444 15.3873 19.0547 16.971 17.4711C18.5546 15.8875 19.4443 13.7396 19.4443 11.5C19.4443 9.26038 18.5546 7.11251 16.971 5.52888C15.3873 3.94524 13.2395 3.05556 10.9999 3.05556Z" fill="white"/>
</g>
</svg>
