<svg width="44" height="44" viewBox="0 0 44 44" fill="none" xmlns="http://www.w3.org/2000/svg">
<g id="loading" clip-path="url(#clip0_2001_2748)">
<g id="Group">
<path id="Vector" d="M18.839 3.38867C19.5434 3.28399 20.2608 3.45988 20.8369 3.87851C21.413 4.29715 21.8018 4.92511 21.9198 5.6274C22.0378 6.3297 21.8755 7.05026 21.4679 7.63418C21.0602 8.21811 20.4398 8.61877 19.7398 8.75005C16.5736 9.28773 13.7 10.9287 11.6279 13.3823C9.55576 15.8359 8.41899 18.9438 8.41895 22.1553C8.41895 25.7606 9.85114 29.2182 12.4005 31.7675C14.9498 34.3169 18.4074 35.7491 22.0127 35.7491V41.1866C11.502 41.1866 2.98145 32.6678 2.98145 22.1553C2.98145 12.83 9.73482 4.91842 18.839 3.38867Z" fill="url(#paint0_linear_2001_2748)"/>
<path id="Vector_2" d="M30.8794 8.19533C31.1179 7.92934 31.4064 7.71295 31.7285 7.55851C32.0505 7.40407 32.3999 7.31461 32.7566 7.29525C33.1133 7.2759 33.4703 7.32702 33.8072 7.44569C34.1441 7.56437 34.4543 7.74827 34.7201 7.98689C36.7124 9.77008 38.3056 11.954 39.3954 14.3956C40.4852 16.8372 41.0469 19.4814 41.0439 22.1552C41.0439 32.6677 32.5234 41.1865 22.0127 41.1865V35.749C24.7644 35.749 27.4512 34.914 29.7182 33.3543C31.9851 31.7945 33.7253 29.5836 34.7088 27.0137C35.6922 24.4438 35.8726 21.6359 35.2261 18.9613C34.5796 16.2866 33.1366 13.8712 31.0879 12.0342C30.5512 11.5527 30.2278 10.8778 30.1887 10.1579C30.1496 9.43802 30.3981 8.73207 30.8794 8.19533Z" fill="url(#paint1_linear_2001_2748)"/>
</g>
</g>
<defs>
<linearGradient id="paint0_linear_2001_2748" x1="954.544" y1="202.747" x2="954.544" y2="3475.65" gradientUnits="userSpaceOnUse">
<stop stop-color="white"/>
<stop offset="1" stop-opacity="0.55"/>
</linearGradient>
<linearGradient id="paint1_linear_2001_2748" x1="973.576" y1="523.854" x2="973.576" y2="2961.26" gradientUnits="userSpaceOnUse">
<stop stop-color="white"/>
<stop offset="1" stop-color="#606060"/>
</linearGradient>
<clipPath id="clip0_2001_2748">
<rect width="43.5" height="43.5" fill="white" transform="translate(0.262695 0.405273)"/>
</clipPath>
</defs>
</svg>
