<svg width="17" height="20" viewBox="0 0 17 20" fill="none" xmlns="http://www.w3.org/2000/svg">
<path id="settings" d="M14.517 11.1962C14.5469 10.9025 14.5668 10.597 14.5668 10.2798C14.5668 9.96266 14.5469 9.66897 14.517 9.36353L16.1887 7.81284C16.3379 7.67187 16.3777 7.42517 16.2782 7.21372L14.6862 3.97137C14.5966 3.77166 14.3777 3.68943 14.2085 3.77166L12.2284 4.71147C11.8204 4.33555 11.3727 4.03011 10.8851 3.79516L10.5866 1.30466C10.5667 1.08146 10.3975 0.916992 10.1985 0.916992H7.01436C6.81535 0.916992 6.65615 1.08146 6.62629 1.30466L6.32778 3.79516C5.85016 4.03011 5.40239 4.3473 4.98447 4.71147L3.00433 3.77166C2.82522 3.68943 2.61626 3.77166 2.52671 3.97137L0.934633 7.21372C0.835129 7.41343 0.884881 7.67187 1.02419 7.81284L2.69586 9.36353C2.66601 9.65722 2.64611 9.97441 2.64611 10.2798C2.64611 10.5853 2.66601 10.8907 2.69586 11.1962L1.02419 12.7468C0.874931 12.8878 0.835129 13.1345 0.934633 13.346L2.52671 16.5883C2.61626 16.788 2.83517 16.8703 3.00433 16.788L4.98447 15.8482C5.39244 16.2241 5.84021 16.5296 6.32778 16.7645L6.62629 19.255C6.6462 19.4782 6.81535 19.6427 7.01436 19.6427H10.1985C10.3975 19.6427 10.5567 19.4782 10.5866 19.255L10.8851 16.7645C11.3627 16.5296 11.8105 16.2124 12.2284 15.8482L14.2085 16.788C14.3876 16.8703 14.5966 16.788 14.6862 16.5883L16.2782 13.346C16.3678 13.1463 16.328 12.8878 16.1887 12.7468L14.517 11.1962ZM8.60643 13.5574C7.07406 13.5574 5.82031 12.089 5.82031 10.2681C5.82031 8.45896 7.06411 6.97876 8.60643 6.97876C10.1388 6.97876 11.3926 8.44722 11.3926 10.2681C11.3926 12.0772 10.1488 13.5574 8.60643 13.5574Z" fill="#EBEAE9"/>
</svg>
