<svg width="17" height="20" viewBox="0 0 17 20" fill="none" xmlns="http://www.w3.org/2000/svg">
<g id="fullscreen">
<path d="M0.87207 7.93913H2.8547V3.2577H6.81996V0.916992H0.87207V7.93913Z" fill="#EBEAE9"/>
<path d="M0.87207 7.93913H2.8547V3.2577H6.81996V0.916992H0.87207V7.93913Z" fill="#EBEAE9"/>
<path d="M10.7852 0.916992V3.2577H14.7505V7.93913H16.7331V0.916992H10.7852Z" fill="#EBEAE9"/>
<path d="M10.7852 0.916992V3.2577H14.7505V7.93913H16.7331V0.916992H10.7852Z" fill="#EBEAE9"/>
<path d="M14.7505 17.302H10.7852V19.6427H16.7331V12.6206H14.7505V17.302Z" fill="#EBEAE9"/>
<path d="M14.7505 17.302H10.7852V19.6427H16.7331V12.6206H14.7505V17.302Z" fill="#EBEAE9"/>
<path d="M2.8547 12.6206H0.87207V19.6427H6.81996V17.302H2.8547V12.6206Z" fill="#EBEAE9"/>
<path d="M2.8547 12.6206H0.87207V19.6427H6.81996V17.302H2.8547V12.6206Z" fill="#EBEAE9"/>
</g>
</svg>
